<svg height="512" viewBox="0 0 56 60" width="512" xmlns="http://www.w3.org/2000/svg">
<g id="Page-1" fill="none" fill-rule="evenodd"><g id="053---Speech-Box" fill="rgb(0,0,0)" fill-rule="nonzero"><path id="Shape" d="m7 10c1.05611653.0005666 1.92969436-.82204772 1.99253544-1.87629316.06284109-1.05424543-.70682995-1.97480991-1.75553544-2.09970684.563-2.315 2.054-4.024 3.763-4.024.5522847 0 1-.44771525 1-1s-.4477153-1-1-1c-3.309 0-6 3.589-6 8 0 1.1045695.8954305 2 2 2z"/><path id="Shape" d="m17 10c1.0561165.0005666 1.9296944-.82204772 1.9925354-1.87629316.0628411-1.05424543-.7068299-1.97480991-1.7555354-2.09970684.563-2.315 2.054-4.024 3.763-4.024.5522847 0 1-.44771525 1-1s-.4477153-1-1-1c-3.309 0-6 3.589-6 8 0 1.1045695.8954305 2 2 2z"/><path id="Shape" d="m49 50c-1.0561165-.0005666-1.9296944.8220477-1.9925354 1.8762932-.0628411 1.0542454.7068299 1.9748099 1.7555354 2.0997068-.563 2.315-2.054 4.024-3.763 4.024-.5522847 0-1 .4477153-1 1s.4477153 1 1 1c3.309 0 6-3.589 6-8 0-1.1045695-.8954305-2-2-2z"/><path id="Shape" d="m39 50c-1.0561165-.0005666-1.9296944.8220477-1.9925354 1.8762932-.0628411 1.0542454.7068299 1.9748099 1.7555354 2.0997068-.563 2.315-2.054 4.024-3.763 4.024-.5522847 0-1 .4477153-1 1s.4477153 1 1 1c3.309 0 6-3.589 6-8 0-1.1045695-.8954305-2-2-2z"/><path id="Shape" d="m7 27h30c.5522847 0 1-.4477153 1-1s-.4477153-1-1-1h-30c-.55228475 0-1 .4477153-1 1s.44771525 1 1 1z"/><path id="Shape" d="m29 41h-22c-.55228475 0-1 .4477153-1 1s.44771525 1 1 1h22c.5522847 0 1-.4477153 1-1s-.4477153-1-1-1z"/><path id="Shape" d="m7 35h11c.5522847 0 1-.4477153 1-1s-.4477153-1-1-1h-11c-.55228475 0-1 .4477153-1 1s.44771525 1 1 1z"/><path id="Shape" d="m49 33h-23c-.5522847 0-1 .4477153-1 1s.4477153 1 1 1h23c.5522847 0 1-.4477153 1-1s-.4477153-1-1-1z"/><path id="Shape" d="m53 9h-32.142c-.4490235 1.7642024-2.0375517 2.9990647-3.858 2.9990647s-3.4089765-1.2348623-3.858-2.9990647h-2.284c-.4490235 1.7642024-2.03755168 2.9990647-3.858 2.9990647s-3.40897651-1.2348623-3.858-2.9990647h-.142c-1.65685425 0-3 1.3431458-3 3v36c0 1.6568542 1.34314575 3 3 3h32.142c.4490235-1.7642024 2.0375517-2.9990647 3.858-2.9990647s3.4089765 1.2348623 3.858 2.9990647h2.284c.4490235-1.7642024 2.0375517-2.9990647 3.858-2.9990647s3.4089765 1.2348623 3.858 2.9990647h.142c1.6568542 0 3-1.3431458 3-3v-36c0-1.6568542-1.3431458-3-3-3zm-46 22h11c1.6568542 0 3 1.3431458 3 3s-1.3431458 3-3 3h-11c-1.65685425 0-3-1.3431458-3-3s1.34314575-3 3-3zm-3-5c0-1.6568542 1.34314575-3 3-3h30c1.6568542 0 3 1.3431458 3 3s-1.3431458 3-3 3h-30c-1.65685425 0-3-1.3431458-3-3zm25 19h-22c-1.65685425 0-3-1.3431458-3-3s1.34314575-3 3-3h22c1.6568542 0 3 1.3431458 3 3s-1.3431458 3-3 3zm20-8h-23c-1.6568542 0-3-1.3431458-3-3s1.3431458-3 3-3h23c1.6568542 0 3 1.3431458 3 3s-1.3431458 3-3 3zm0-8h-4c-1.6568542 0-3-1.3431458-3-3s1.3431458-3 3-3h4c1.6568542 0 3 1.3431458 3 3s-1.3431458 3-3 3zm0-8h-42c-1.65685425 0-3-1.3431458-3-3s1.34314575-3 3-3h42c1.6568542 0 3 1.3431458 3 3s-1.3431458 3-3 3z"/><path id="Shape" d="m49 17h-42c-.55228475 0-1 .4477153-1 1s.44771525 1 1 1h42c.5522847 0 1-.4477153 1-1s-.4477153-1-1-1z"/><path id="Shape" d="m49 25h-4c-.5522847 0-1 .4477153-1 1s.4477153 1 1 1h4c.5522847 0 1-.4477153 1-1s-.4477153-1-1-1z"/></g></g></svg>