<?xml version="1.0" encoding="utf-8"?>
<!-- Generator: Adobe Illustrator 23.0.3, SVG Export Plug-In . SVG Version: 6.00 Build 0)  -->
<svg version="1.1" id="Слой_1" xmlns="http://www.w3.org/2000/svg" xmlns:xlink="http://www.w3.org/1999/xlink" x="0px" y="0px"
	 viewBox="0 0 448 448" style="enable-background:new 0 0 448 448;" xml:space="preserve">
<g>
	<path d="M269,139.6V77.8h-74.5c-2.3,0-4.2,1.9-4.2,4.2v216.6c0,2.3,1.9,4.2,4.2,4.2h149.1c2.3,0,4.2-1.9,4.2-4.2v-142h-61.9
		C276.6,156.5,269,148.9,269,139.6z"/>
	<path d="M312.5,79c-0.8-0.8-1.9-1.2-3-1.2h-6.8v45h45V116c0-1.1-0.4-2.2-1.2-3L312.5,79z"/>
	<path d="M156.5,302.8V145.3h-52c-2.3,0-4.2,1.9-4.2,4.2V366c0,2.3,1.9,4.2,4.2,4.2h149.1c2.3,0,4.2-1.9,4.2-4.2v-29.5h-67.5
		C171.6,336.5,156.5,321.4,156.5,302.8z"/>
	<path d="M400,0H48C21.5,0,0,21.5,0,48v352c0,26.5,21.5,48,48,48h352c26.5,0,48-21.5,48-48V48C448,21.5,426.5,0,400,0z M381.5,302.8
		c0,18.6-15.1,33.8-33.8,33.8h-56.3v33.8c0,18.6-15.1,33.8-33.8,33.8H100.3c-18.6,0-33.8-15.1-33.8-33.8v-225
		c0-18.6,15.1-33.8,33.8-33.8h56.3V77.8c0-18.6,15.1-33.8,33.8-33.8h121c9,0,17.5,3.6,23.9,9.9l36.5,36.5c6.3,6.3,9.9,14.9,9.9,23.9
		V302.8z"/>
</g>
</svg>
