<?xml version="1.0" encoding="utf-8"?>
<!-- Generator: Adobe Illustrator 16.2.0, SVG Export Plug-In . SVG Version: 6.00 Build 0)  -->
<!DOCTYPE svg PUBLIC "-//W3C//DTD SVG 1.0//EN" "http://www.w3.org/TR/2001/REC-SVG-20010904/DTD/svg10.dtd">
<svg version="1.0" id="Слой_1" xmlns="http://www.w3.org/2000/svg" xmlns:xlink="http://www.w3.org/1999/xlink" x="0px" y="0px"
	 width="200px" height="200px" viewBox="0 0 200 200" enable-background="new 0 0 200 200" xml:space="preserve">
<path fill-rule="evenodd" clip-rule="evenodd" fill="#010202" d="M184.585,85.168c-0.143-7.539,0.602-11.169-0.031-28.435
	c-0.985-26.983-31.175-31.108-43.608-28.784c-3.027,0.566-12.082,1.959-23.219,5.409c-2.524,0.783-5.159,1.663-7.859,2.628
	c4.906-24.384,18.803-31.349,17.216-33.628c-6.17-1.999-11.455,4.85-17.509,7.972c-7.96,4.102-15.521,4.912-24.393,5.083
	c-7.537,0.144-11.167-0.601-28.436,0.03c-26.98,0.983-31.104,31.174-28.78,43.609c1.976,10.594,4.407,20.939,8.042,31.092
	c-24.615-4.991-33.3-19.296-33.825-16.583c-1.219,6.32,3.903,11.32,7.843,16.788c5.171,7.183,5.772,15.607,5.933,24.129
	c0.146,7.54-0.852,11.806-0.222,29.071c0.985,26.981,30.156,31.616,44.372,28.274c2.998-0.703,12.079-1.706,23.22-5.155
	c2.19-0.678,4.448-1.443,6.747-2.281c-5.063,24.308-19.196,32.905-16.497,33.427c6.322,1.218,11.32-3.901,16.791-7.84
	c7.133-5.138,15.591-5.771,24.127-5.934c7.54-0.146,11.805,0.85,29.07,0.221c26.982-0.982,31.615-30.159,28.276-44.372
	c-0.705-2.999-1.709-12.079-5.157-23.219c-0.677-2.19-1.441-4.443-2.278-6.74c24.067,4.974,30.966,18.714,33.234,17.134
	c1.996-6.169-4.853-11.454-7.974-17.506C185.568,101.604,184.756,94.039,184.585,85.168L184.585,85.168z M81.838,48.563
	C66.629,57.025,53.476,68.93,42.667,82.502c-3.89-17.916-2.137-32.256,9.53-36.99C64.569,40.493,74.389,41.103,81.838,48.563
	L81.838,48.563z M44.079,88.279c7.477-8.579,21.57-24.324,41.82-34.599c7.319,11.375,7.412,26.749,7.594,39.753
	c-16.061-0.294-32.517-0.555-48.519-1.993C44.659,90.378,44.361,89.325,44.079,88.279L44.079,88.279z M48.593,118.191
	c8.45,15.178,20.327,28.304,33.866,39.1c-18.58,4.263-32.534,2.585-37.039-9.188C40.768,135.933,41.352,125.743,48.593,118.191
	L48.593,118.191z M88.189,155.831c-8.609-7.507-24.293-21.59-34.527-41.794c1.479-0.964,3.111-1.871,4.904-2.71
	c7.385-3.468,20.012-4.752,34.88-4.963c-0.29,16.063-1.164,32.513-1.979,48.515C90.363,155.213,89.27,155.531,88.189,155.831
	L88.189,155.831z M108.585,44.953c1.142-0.337,2.275-0.659,3.396-0.959c8.748,7.409,24.013,20.551,34.355,41.883
	c-11.41,7.353-26.862,7.428-39.908,7.605C106.738,77.402,107.148,60.973,108.585,44.953L108.585,44.953z M117.76,42.595
	c17.793-3.816,32.017-2.023,36.727,9.589c5.023,12.376,4.411,22.2-3.063,29.651c-0.811-1.444-1.632-2.873-2.472-4.28
	C139.177,61.164,125.354,48.713,117.76,42.595L117.76,42.595z M154.901,108.559c0.358,1.187,0.697,2.356,1.018,3.515
	c-7.431,8.768-20.572,23.978-41.86,34.28c-0.969-1.484-1.876-3.122-2.718-4.919c-3.478-7.408-4.761-20.093-4.963-35.022
	C122.457,106.719,138.879,107.146,154.901,108.559L154.901,108.559z M157.363,117.796c4.191,18.452,2.473,32.3-9.246,36.785
	c-12.178,4.654-22.371,4.069-29.923-3.187C133.374,142.88,146.457,131.317,157.363,117.796L157.363,117.796z"/>
</svg>
