<?xml version="1.0" encoding="utf-8"?>
<!-- Generator: Adobe Illustrator 16.2.0, SVG Export Plug-In . SVG Version: 6.00 Build 0)  -->
<!DOCTYPE svg PUBLIC "-//W3C//DTD SVG 1.1//EN" "http://www.w3.org/Graphics/SVG/1.1/DTD/svg11.dtd">
<svg version="1.1" id="Слой_1" xmlns="http://www.w3.org/2000/svg" xmlns:xlink="http://www.w3.org/1999/xlink" x="0px" y="0px"
	 width="32px" height="32px" viewBox="0 0 32 32" enable-background="new 0 0 32 32" xml:space="preserve">
<path d="M13.06,26.29c0.109,0.106,0.157,0.394,0.157,0.846c0.007,0.404-0.055,0.654-0.185,0.764
	c-0.13,0.107-0.424,0.156-0.883,0.156h-1.17v-1.932h1.27C12.688,26.124,12.96,26.183,13.06,26.29z M17.467,26.124h-1.529v3.683
	h1.466c0.492,0,0.807-0.106,0.953-0.335c0.15-0.232,0.223-0.726,0.214-1.504c0-0.793-0.063-1.304-0.195-1.518
	C18.25,26.231,17.948,26.124,17.467,26.124z M32,3.497v25.091C32,30.458,30.453,32,28.579,32H3.43C1.54,32,0,30.458,0,28.588V3.497
	c0-1.87,1.54-3.413,3.43-3.413h25.149C30.453,0.083,32,1.626,32,3.497z M14.259,27.117c0-0.735-0.129-1.222-0.379-1.479
	c-0.252-0.253-0.747-0.375-1.479-0.375h-0.272H9.946v5.405h1.034v-1.743h1.205l0.237-0.009c0.74,0,1.233-0.121,1.472-0.359
	C14.137,28.323,14.259,27.842,14.259,27.117z M17.949,17.895V11.02h-3.904v3.438v0.001v3.436l-1.503,0.011l-1.51,0.019l2.453,2.651
	c1.346,1.457,2.463,2.657,2.486,2.668c0.023,0.013,1.148-1.182,2.504-2.652l2.468-2.667l-1.497-0.019L17.949,17.895z M19.612,27.489
	c0-0.825-0.151-1.408-0.453-1.736c-0.302-0.324-0.825-0.49-1.585-0.49h-2.662v5.405h2.691c0.854,0,1.4-0.195,1.644-0.574
	S19.612,28.839,19.612,27.489z M23.946,25.263h-3.58v5.405h1.026v-2.223h2.424v-0.861h-2.424v-1.46h2.554V25.263z M26.535,8.56
	L26.047,8.33V7.876c0-0.83-0.252-1.9-0.646-2.792c-0.281-0.618-0.882-1.47-1.414-2.004C22.63,1.725,20.827,0.984,18.941,1
	c-0.342,0.01-0.658,0.02-0.702,0.027l0.001,0c-0.045,0.011-0.285,0.051-0.526,0.087c-2.147,0.349-4.183,1.912-5.131,3.938
	c-0.129,0.263-0.228,0.505-0.228,0.538c0,0.145-0.129,0.116-0.397-0.077c-1.992-1.426-4.79-0.7-5.896,1.531
	C5.735,7.701,5.606,8.525,5.718,9.248C5.83,10.01,5.841,9.97,5.479,10.088c-1.289,0.416-2.355,1.33-2.966,2.547
	c-0.327,0.647-0.472,1.206-0.506,1.991c-0.052,1.113,0.209,2.087,0.791,2.974c0.662,1.009,1.543,1.671,2.743,2.074l0.495,0.17
	l5.589,0.03l-0.112-0.124c-0.063-0.073-0.646-0.712-1.3-1.414l-1.189-1.285l2.075-0.02l2.075-0.011v-6.877h5.653v6.875l2.067,0.011
	l2.064,0.018l-1.296,1.398l-1.292,1.398l2.15,0.015c1.758,0.013,2.242-0.006,2.646-0.076c1.835-0.344,3.367-1.51,4.212-3.203
	C30.868,13.596,29.586,9.99,26.535,8.56z"/>
</svg>
