<?xml version="1.0" encoding="utf-8"?>
<!-- Generator: Adobe Illustrator 22.1.0, SVG Export Plug-In . SVG Version: 6.00 Build 0)  -->
<svg version="1.1" id="Слой_1" xmlns="http://www.w3.org/2000/svg" xmlns:xlink="http://www.w3.org/1999/xlink" x="0px" y="0px"
	 viewBox="0 0 250 250" style="enable-background:new 0 0 250 250;" xml:space="preserve">
<path d="M124.7,250C56.1,250,0,193.8,0,125S56.1,0,124.7,0c69,0,124.7,56.2,124.7,125S193.4,250,124.7,250L124.7,250z M124.7,10.4
	C61.8,10.4,10.4,61.6,10.4,125c0,63.4,51.4,114.6,114.3,114.6c63.2,0,114.3-51.5,114.3-114.6C239,62,187.6,10.4,124.7,10.4
	L124.7,10.4z M196,183.3H57.2c-7.7,0-13.9-6.4-13.9-14.4V81.1c0-7.9,6.3-14.4,13.9-14.4H196c7.7,0,13.9,6.5,13.9,14.4v87.9
	C209.9,176.9,203.7,183.3,196,183.3L196,183.3z M192.3,173l-43.4-39.8l-7.1,6.4c-4.1,3.7-9.2,5.7-15.2,5.7c-6,0-11.1-1.9-15.2-5.7
	l-7.1-6.4L60.9,173H192.3L192.3,173z M53.6,86.3v79.4l43.2-40.2L53.6,86.3L53.6,86.3z M60.5,77l55.4,50.7c4.8,4.5,8.4,6.7,10.7,6.7
	c2.3,0,5.9-2.2,10.7-6.7L192.7,77L60.5,77L60.5,77z M199.5,86.3l-43.2,39.1l43.2,40.2V86.3L199.5,86.3z"/>
</svg>
