<?xml version="1.0" encoding="utf-8"?>
<!-- Generator: Adobe Illustrator 23.0.3, SVG Export Plug-In . SVG Version: 6.00 Build 0)  -->
<svg version="1.1" id="Capa_1" xmlns="http://www.w3.org/2000/svg" xmlns:xlink="http://www.w3.org/1999/xlink" x="0px" y="0px"
	 viewBox="0 0 490 490" style="enable-background:new 0 0 490 490;" xml:space="preserve">
<path d="M425.6,335.8c2.5-3.3,7.5-4.2,10.8-2.5c4.2,2.5,5,7.5,2.5,11.6l-51.5,74c-1.7,1.7-3.3,3.3-5.8,3.3h-0.8
	c-1.7,0-3.3-0.8-5-1.7l-39.9-32.4c-3.3-2.5-4.2-8.3-0.8-11.6c2.5-3.3,8.3-4.2,11.6-0.8l32.4,26.6L425.6,335.8L425.6,335.8z
	 M432.2,286.8c34.9,18.3,58.2,54,58.2,95.6c0,59.8-48.2,108.1-108.1,108.1c-20.8,0-40.7-5.8-57.4-16.6H8.3c-5,0-8.3-3.3-8.3-8.3
	L0,41.6c0-5,3.3-8.3,8.3-8.3h41.6V8.3c0-5,3.3-8.3,8.3-8.3l58.2,0c5,0,8.3,3.3,8.3,8.3v24.9h182.9V8.3c0-5,3.3-8.3,8.3-8.3L374,0
	c5,0,8.3,3.3,8.3,8.3v24.9h41.6c5,0,8.3,3.3,8.3,8.3L432.2,286.8L432.2,286.8z M324.2,66.5h41.6V16.6h-41.6V66.5z M66.5,66.5h41.6
	V16.6H66.5V66.5z M16.6,49.9v66.5h399V49.9h-33.2v24.9c0,5-3.3,8.3-8.3,8.3h-58.2c-5,0-8.3-3.3-8.3-8.3V49.9H124.7v24.9
	c0,5-3.3,8.3-8.3,8.3H58.2c-5,0-8.3-3.3-8.3-8.3V49.9H16.6L16.6,49.9z M16.6,457.1l289.2,0.8c-1.7-0.8-2.5-2.5-4.2-4.2
	c0-0.8-0.8-1.7-1.7-2.5c-1.7-1.7-3.3-3.3-5-5.8c-0.8-0.8-0.8-1.7-1.7-2.5c-1.7-2.5-3.3-4.2-4.2-6.6c-0.8-0.8-0.8-1.7-1.7-2.5
	c-1.7-2.5-2.5-4.2-3.3-6.6c-0.8-0.8-0.8-2.5-1.7-3.3c-0.8-1.7-1.7-4.2-2.5-5.8c0-0.8-0.8-1.7-0.8-2.5H58.2v-241H374v100.6
	c2.5-0.8,5.8-0.8,8.3-0.8c3.3,0,6.6,0,10,0.8c0.8,0,2.5,0,3.3,0c1.7,0,4.2,0.8,5.8,0.8s2.5,0.8,4.2,0.8c1.7,0,3.3,0,5,0.8
	c1.7,0.8,3.3,0.8,5,1.7V133h-399L16.6,457.1L16.6,457.1z M335,285.1c6.6-3.3,14.1-5.8,22.4-7.5l0,0V266h-58.2v47.4
	c0,0,0.8-0.8,1.7-1.7c0.8-1.7,2.5-3.3,4.2-5c0.8-0.8,1.7-1.7,2.5-2.5c1.7-1.7,2.5-3.3,4.2-4.2c0.8-0.8,2.5-1.7,3.3-2.5
	c1.7-0.8,2.5-2.5,4.2-3.3s2.5-1.7,4.2-2.5c1.7-0.8,2.5-1.7,4.2-2.5c1.7-0.8,3.3-1.7,5-2.5C333.3,285.9,334.1,285.9,335,285.1
	L335,285.1z M279.3,350.8c0.8-3.3,1.7-6.6,3.3-9.1c0-0.8,0-0.8,0-0.8h-58.2V399H276c0,0,0-0.8,0-1.7l0,0c-0.8-1.7-0.8-2.5-0.8-4.2
	c0-0.8,0-0.8,0-1.7c-0.8-3.3-0.8-5.8-0.8-9.1s0.8-7.5,0.8-10.8c0-1.7,0.8-3.3,0.8-5s0.8-4.2,0.8-5.8c0-2.5,0.8-5,1.7-7.5
	C278.4,352.4,279.3,351.6,279.3,350.8L279.3,350.8z M74.8,399H133v-58.2H74.8V399z M74.8,324.2H133V266H74.8V324.2z M357.4,249.4
	v-58.2h-58.2v58.2L357.4,249.4L357.4,249.4z M282.6,249.4v-58.2h-58.2v58.2L282.6,249.4L282.6,249.4z M282.6,266h-58.2v58.2h58.2
	V266z M149.6,324.2h58.2V266h-58.2V324.2z M207.8,249.4v-58.2h-58.2v58.2L207.8,249.4L207.8,249.4z M133,249.4v-58.2H74.8v58.2
	L133,249.4L133,249.4z M149.6,399h58.2v-58.2h-58.2V399z M382.3,473.8c50.7,0,91.4-40.7,92.3-91.4c0-36.6-22.4-69-54-83.1
	c-2.5-0.8-5.8-2.5-8.3-3.3c-0.8,0-0.8,0-0.8,0c-2.5-0.8-5.8-1.7-8.3-2.5h-0.8c-2.5-0.8-5.8-1.7-8.3-1.7c-0.8,0-0.8,0-1.7,0
	c-3.3-0.8-6.6-0.8-10-0.8c-5,0-10,0.8-15,1.7l0,0c-13.3,2.5-25.8,7.5-36.6,15l-0.8,0.8c-2.5,1.7-5,3.3-6.6,5
	c-0.8,0.8-0.8,0.8-1.7,1.7c-1.7,1.7-3.3,3.3-5,5c-0.8,0-0.8,0.8-1.7,1.7c-1.7,1.7-3.3,4.2-5,5.8c-0.8,0.8-1.7,0.8-1.7,1.7
	c-1.7,2.5-3.3,5-5,7.5c0,0.8-0.8,0.8-0.8,1.7l-0.8,1.7c-0.8,1.7-2.5,4.2-3.3,6.6c-0.8,2.5-1.7,5-2.5,7.5v0.8
	c-0.8,2.5-1.7,5.8-2.5,8.3v0.8c-0.8,2.5-1.7,5.8-1.7,8.3v0.8c-0.8,2.5-0.8,5.8-0.8,9.1s0,7.5,0.8,10v0.8c0.8,3.3,1.7,7.5,2.5,10.8
	c0,0.8,0,0.8,0,1.7c0.8,2.5,1.7,4.2,2.5,6.6c0,0.8,0,2.5,0.8,3.3c0.8,2.5,2.5,5,3.3,7.5c0,0,0.8,0.8,0.8,1.7c1.7,2.5,3.3,5.8,5,8.3
	c0.8,0.8,1.7,2.5,2.5,3.3c1.7,1.7,2.5,3.3,4.2,5c0.8,1.7,1.7,2.5,2.5,3.3c1.7,1.7,3.3,3.3,5,5c0.8,0.8,1.7,1.7,2.5,2.5
	c2.5,1.7,5.8,4.2,8.3,5.8C345.8,468,363.2,473.8,382.3,473.8L382.3,473.8z"/>
</svg>
