<?xml version="1.0" encoding="utf-8"?>
<!-- Generator: Adobe Illustrator 23.0.3, SVG Export Plug-In . SVG Version: 6.00 Build 0)  -->
<svg version="1.1" id="Слой_1" xmlns="http://www.w3.org/2000/svg" xmlns:xlink="http://www.w3.org/1999/xlink" x="0px" y="0px"
	 viewBox="0 0 32 32" style="enable-background:new 0 0 32 32;" xml:space="preserve">
<path d="M16,10c3.3,0,6,2.7,6,6s-2.7,6-6,6s-6-2.7-6-6S12.7,10,16,10z M16,6C6,6,0,15.9,0,15.9S6,26,16,26s16-10,16-10S26,6,16,6z
	 M16,24c-8.8,0-13.5-8-13.5-8S7.3,8,16,8s13.5,8,13.5,8S24.8,24,16,24z"/>
</svg>
