<?xml version="1.0" encoding="utf-8"?>
<!-- Generator: Adobe Illustrator 23.0.3, SVG Export Plug-In . SVG Version: 6.00 Build 0)  -->
<svg version="1.1" id="Слой_1" xmlns="http://www.w3.org/2000/svg" xmlns:xlink="http://www.w3.org/1999/xlink" x="0px" y="0px"
	 viewBox="0 0 448 448" style="enable-background:new 0 0 448 448;" xml:space="preserve">
<g>
	<path d="M374.9,118.2H75.1c-2.5,0-4.5,2-4.5,4.5v204.8c0,2.5,2,4.5,4.5,4.5h299.7c2.5,0,4.5-2,4.5-4.5V122.6
		C379.3,120.2,377.3,118.2,374.9,118.2z M130,147.8c16.4,0,29.7,13.3,29.7,29.7s-13.3,29.7-29.7,29.7s-29.7-13.3-29.7-29.7
		S113.7,147.8,130,147.8z M343.7,296.2H106.3v-35.6l29.3-29.3c3.5-3.5,9.1-3.5,12.6,0l29.3,29.3l88.7-88.7c3.5-3.5,9.1-3.5,12.6,0
		l64.9,64.9V296.2z"/>
	<path d="M400,0H48C21.5,0,0,21.5,0,48v352c0,26.5,21.5,48,48,48h352c26.5,0,48-21.5,48-48V48C448,21.5,426.5,0,400,0z M414.9,331.8
		c0,19.7-15.9,35.6-35.6,35.6H70.7c-19.7,0-35.6-15.9-35.6-35.6V118.2c0-19.7,15.9-35.6,35.6-35.6h308.6c19.7,0,35.6,15.9,35.6,35.6
		V331.8z"/>
</g>
</svg>
