<?xml version="1.0" encoding="utf-8"?>
<!-- Generator: Adobe Illustrator 16.2.0, SVG Export Plug-In . SVG Version: 6.00 Build 0)  -->
<!DOCTYPE svg PUBLIC "-//W3C//DTD SVG 1.1//EN" "http://www.w3.org/Graphics/SVG/1.1/DTD/svg11.dtd">
<svg version="1.1" id="Слой_1" xmlns="http://www.w3.org/2000/svg" xmlns:xlink="http://www.w3.org/1999/xlink" x="0px" y="0px"
	 width="512px" height="512px" viewBox="0 0 512 512" enable-background="new 0 0 512 512" xml:space="preserve">
<path d="M452,159h-51V0H111v159H60c-33.086,0-60,26.914-60,60v162c0,33.086,26.914,60,60,60h51v71h290v-71h51
	c33.086,0,60-26.914,60-60V219C512,185.914,485.086,159,452,159z M151,40h210v119H151V40z M151,472V339h210v133H151z M472,381
	c0,11.027-8.973,20-20,20h-51v-62h31v-40H80v40h31v62H60c-11.027,0-20-8.973-20-20V219c0-11.027,8.973-20,20-20h392
	c11.027,0,20,8.973,20,20V381z M321,80v40H191V80H321z"/>
</svg>
