<?xml version="1.0" encoding="utf-8"?>
<!-- Generator: Adobe Illustrator 16.2.0, SVG Export Plug-In . SVG Version: 6.00 Build 0)  -->
<!DOCTYPE svg PUBLIC "-//W3C//DTD SVG 1.1//EN" "http://www.w3.org/Graphics/SVG/1.1/DTD/svg11.dtd">
<svg version="1.1" id="Слой_1" xmlns="http://www.w3.org/2000/svg" xmlns:xlink="http://www.w3.org/1999/xlink" x="0px" y="0px"
	 width="32px" height="32px" viewBox="0 0 32 32" enable-background="new 0 0 32 32" xml:space="preserve">
<g>
	<path d="M24.643,10.109H8.182c-0.464,0-0.84,0.376-0.84,0.84v6.803c0,0.464,0.376,0.84,0.84,0.84h2.142v-2.604H9.021v-1.68h14.781
		v1.68h-1.302v2.604h2.142c0.464,0,0.84-0.376,0.84-0.84v-6.803C25.482,10.485,25.106,10.109,24.643,10.109z"/>
	<rect x="12.003" y="15.988" width="8.818" height="5.585"/>
	<path d="M20.821,3.433h-8.818V8.43h8.818V3.433z M19.142,6.792h-5.459v-1.68h5.459V6.792z"/>
	<path d="M28.579,0.083H3.43C1.54,0.083,0,1.626,0,3.497v25.091C0,30.458,1.54,32,3.43,32h25.149C30.453,32,32,30.458,32,28.588
		V3.497C32,1.626,30.453,0.083,28.579,0.083z M13.894,28.557c-0.239,0.238-0.732,0.359-1.472,0.359l-0.237,0.009H10.98v1.743H9.946
		v-5.405h2.182H12.4c0.732,0,1.227,0.122,1.479,0.375c0.25,0.258,0.379,0.744,0.379,1.479
		C14.259,27.842,14.137,28.323,13.894,28.557z M19.247,30.094c-0.243,0.379-0.79,0.574-1.644,0.574h-2.691v-5.405h2.662
		c0.76,0,1.283,0.166,1.585,0.49c0.302,0.328,0.453,0.911,0.453,1.736C19.612,28.839,19.49,29.715,19.247,30.094z M23.946,26.124
		h-2.554v1.46h2.424v0.861h-2.424v2.223h-1.026v-5.405h3.58V26.124z M27.162,17.752c0,1.391-1.128,2.52-2.52,2.52h-2.142v2.981
		H10.323v-2.981H8.182c-1.391,0-2.52-1.129-2.52-2.52v-6.803c0-1.391,1.129-2.52,2.52-2.52h2.142V1.753h12.178V8.43h2.142
		c1.392,0,2.52,1.129,2.52,2.52V17.752z"/>
	<path d="M12.25,26.124h-1.27v1.932h1.17c0.459,0,0.753-0.049,0.883-0.156c0.129-0.109,0.192-0.359,0.185-0.764
		c0-0.452-0.048-0.739-0.157-0.846C12.96,26.183,12.688,26.124,12.25,26.124z"/>
	<path d="M17.467,26.124h-1.529v3.683h1.466c0.492,0,0.807-0.106,0.953-0.335c0.15-0.232,0.223-0.726,0.214-1.504
		c0-0.793-0.063-1.304-0.195-1.518C18.25,26.231,17.948,26.124,17.467,26.124z"/>
</g>
</svg>
