<?xml version="1.0" encoding="utf-8"?>
<!-- Generator: Adobe Illustrator 22.1.0, SVG Export Plug-In . SVG Version: 6.00 Build 0)  -->
<svg version="1.1" id="required" xmlns="http://www.w3.org/2000/svg" xmlns:xlink="http://www.w3.org/1999/xlink" x="0px" y="0px"
	 viewBox="0 0 222.5 250" style="enable-background:new 0 0 222.5 250;" xml:space="preserve">
<path id="required_1_" d="M213,160.6L151.3,125L213,89.3c9.1-5.2,12.2-16.9,7-26l-0.9-1.6c-5.2-9.1-16.9-12.2-26-7l-61.8,35.7V19.1
	c0-10.5-8.6-19.1-19.1-19.1h-1.9C99.8,0,91.3,8.6,91.3,19.1v71.3L29.5,54.7c-9.1-5.3-20.8-2.1-26,7l-0.9,1.7c-5.2,9.1-2.1,20.8,7,26
	L71.3,125L9.5,160.7c-9.1,5.2-12.2,16.9-7,26l0.9,1.6c5.2,9.1,16.9,12.2,26,7l61.8-35.7v71.3c0,10.5,8.6,19.1,19.1,19.1h1.9
	c10.5,0,19.1-8.6,19.1-19.1v-71.3l61.8,35.7c9.1,5.3,20.8,2.1,26-7l0.9-1.7C225.2,177.6,222.1,165.9,213,160.6z"/>
</svg>
