<?xml version="1.0" encoding="utf-8"?>
<!-- Generator: Adobe Illustrator 22.1.0, SVG Export Plug-In . SVG Version: 6.00 Build 0)  -->
<svg version="1.1" id="success" xmlns="http://www.w3.org/2000/svg" xmlns:xlink="http://www.w3.org/1999/xlink" x="0px" y="0px"
	 viewBox="0 0 32 32" style="enable-background:new 0 0 32 32;" xml:space="preserve">
<path d="M16,31.6c-4.1,0-8.1-1.6-10.9-4.6C-1,21-1,11.1,5.1,5.1c3-3,6.8-4.6,10.9-4.6s8.1,1.6,10.9,4.6c6.1,6.1,6.1,15.9,0,22
	C24.1,30,20.1,31.6,16,31.6z M16,3.1c-3.5,0-6.8,1.4-9.2,3.9c-5.1,5-5.1,13.3,0,18.4s13.4,5.1,18.4,0c5.1-5.1,5.1-13.4,0-18.5
	C22.8,4.4,19.5,3.1,16,3.1L16,3.1z M26.1,26.2L26.1,26.2L26.1,26.2z M14.1,22.1c-0.4,0-0.6-0.1-0.9-0.4L8,16.5
	c-0.5-0.5-0.5-1.2,0-1.7c0.5-0.5,1.2-0.5,1.7,0l4.3,4.3l8.1-8.1c0.5-0.5,1.2-0.5,1.7,0c0.5,0.5,0.5,1.2,0,1.7l0,0L15,21.7
	C14.8,22,14.5,22.1,14.1,22.1L14.1,22.1z"/>
</svg>
