<?xml version="1.0" encoding="utf-8"?>
<!-- Generator: Adobe Illustrator 23.0.3, SVG Export Plug-In . SVG Version: 6.00 Build 0)  -->
<svg version="1.1" id="Слой_1" xmlns="http://www.w3.org/2000/svg" xmlns:xlink="http://www.w3.org/1999/xlink" x="0px" y="0px"
	 viewBox="0 0 448 449" style="enable-background:new 0 0 448 449;" xml:space="preserve">
<path d="M400,1H48C21.5,1,0,22.5,0,49v352c0,26.5,21.5,48,48,48h352c26.5,0,48-21.5,48-48V49C448,22.5,426.5,1,400,1z M399.9,338.7
	H358c-15.9,0-20.6-12.7-49-41.1c-24.9-23.9-35.5-27.1-41.7-27.1c-13.4,0-10.9,4.5-10.9,51.9c0,10.3-3.3,16.3-29.9,16.3
	c-44.3,0-93.1-26.9-127.7-76.6c-51.9-72.7-66.1-127.8-66.1-138.9c0-6.3,2.4-11.9,14.4-11.9h41.8c10.7,0,14.8,4.7,18.9,16.3
	c20.5,59.7,55,111.8,69.2,111.8c5.3,0,7.7-2.5,7.7-16v-61.7c-1.6-28.4-16.6-30.8-16.6-40.8c0-4.6,4-9.6,10.7-9.6h65.8
	c8.8,0,11.8,4.8,11.8,15.4v82.9c0,8.9,4,12,6.7,12c5.3,0,9.8-3.1,19.5-12.9c30.1-33.7,51.4-85.6,51.4-85.6
	c2.6-6.3,7.5-11.9,18.2-11.9H394c12.6,0,15.3,6.5,12.6,15.4h0c-5.3,24.4-56.3,96.3-56.4,96.3c-4.4,7.1-6.2,10.7,0,18.6
	c2.4,3.4,56.2,54.4,64.1,79.2C417.8,332.7,411.8,338.7,399.9,338.7z"/>
</svg>
